<?xml version="1.0" encoding="UTF-8"?>
<!DOCTYPE svg PUBLIC "-//W3C//DTD SVG 1.1//EN" "http://www.w3.org/Graphics/SVG/1.1/DTD/svg11.dtd">
<!-- Creator: CorelDRAW 2018 (64-Bit) -->
<svg xmlns="http://www.w3.org/2000/svg" xml:space="preserve" width="42.3332mm" height="42.3332mm" version="1.1" style="shape-rendering:geometricPrecision; text-rendering:geometricPrecision; image-rendering:optimizeQuality; fill-rule:evenodd; clip-rule:evenodd"
viewBox="0 0 4233.32 4233.32"
 xmlns:xlink="http://www.w3.org/1999/xlink">
 <defs>
  <style type="text/css">
   <![CDATA[
    .fil2 {fill:url(#id0)}
    .fil1 {fill:url(#id1)}
    .fil0 {fill:url(#id2)}
    .fil3 {fill:url(#id3)}
   ]]>
  </style>
  <linearGradient id="id0" gradientUnits="userSpaceOnUse" x1="4936.15" y1="4907.37" x2="-1176.32" y2="-714.3">
   <stop offset="0" style="stop-opacity:1; stop-color:#134B92"/>
   <stop offset="1" style="stop-opacity:1; stop-color:#00A2E9"/>
  </linearGradient>
  <linearGradient id="id1" gradientUnits="userSpaceOnUse" xlink:href="#id0" x1="4936.14" y1="4907.37" x2="-1176.32" y2="-714.31">
  </linearGradient>
  <linearGradient id="id2" gradientUnits="userSpaceOnUse" xlink:href="#id0" x1="4936.14" y1="4907.37" x2="-1176.32" y2="-714.31">
  </linearGradient>
  <linearGradient id="id3" gradientUnits="userSpaceOnUse" xlink:href="#id0" x1="4936.14" y1="4907.35" x2="-1176.31" y2="-714.3">
  </linearGradient>
 </defs>
 <g id="Layer_x0020_1">
  <metadata id="CorelCorpID_0Corel-Layer"/>
  <g id="_2384178322448">
   <path class="fil0" d="M1338.58 446.86c-280.91,124.05 -621.35,233.79 -993.1,268.57 -97.82,8.97 -172.98,90.12 -174.69,188.35 -2.2,143.6 1.32,364.28 28.32,625.66 6.41,62.04 58.16,108.73 120.54,108.73l663.91 0c66.75,0 121.18,54.44 121.18,121.19l0 60.45 0 553.99c0,52.67 -31.97,97.47 -81.78,114.59 -49.82,17.13 -102.57,1.46 -134.96,-40.07 -122.89,-157.59 -200.23,-349.65 -248.63,-537.56 -13.98,-54.26 -61.32,-90.95 -117.34,-90.95l-140.52 0c-37.38,0 -69.55,15.14 -93.38,43.96 -23.82,28.8 -32.66,63.25 -25.65,99.97 124.66,652.35 410.72,1412.88 1053.28,1884.95 37.75,27.73 84.69,31.6 126.48,10.46 41.8,-21.15 66.47,-61.29 66.47,-108.14l0 -1807.28 0 -366.08 0 -201.91c0,-66.75 -54.44,-121.18 -121.18,-121.18l-214.47 0 -293.88 0c-22.25,0 -40.4,-18.15 -40.4,-40.4l0 -20.06c0,-66.74 54.44,-121.18 121.18,-121.18l213.1 0 214.47 0c66.74,0 121.18,-54.44 121.18,-121.18l0 -394.03c0,-42.21 -19.67,-78.49 -55.02,-101.53 -35.37,-23.04 -76.5,-26.37 -115.11,-9.32z"/>
   <path class="fil1" d="M1933.87 1254.56l-61.61 0c-66.74,0 -121.18,54.43 -121.18,121.18l0 2639.43c0,51.16 29.97,94.77 77.72,113.12 76.06,29.22 155.62,55.13 238.77,77.46 32.03,8.54 65.77,8.54 97.81,0 83.28,-22.35 162.93,-48.32 239.11,-77.58 47.77,-18.34 77.74,-61.96 77.74,-113.12l0 -2639.31c0,-66.75 -54.44,-121.18 -121.18,-121.18l-61.6 0 -365.58 0z"/>
   <path class="fil2" d="M2424.38 200.01c-100.11,-61.36 -178.58,-115.6 -231.24,-153.86 -45.7,-33.32 -107.63,-33.32 -153.33,0 -52.54,38.25 -130.89,92.47 -230.9,153.8 -36.97,22.67 -57.83,59.93 -57.83,103.3l0 648.49c0,66.74 54.44,121.18 121.18,121.18l61.61 0 365.58 0 61.6 0c66.74,0 121.18,-54.44 121.18,-121.18l0 -648.41c0,-43.38 -20.87,-80.65 -57.85,-103.32z"/>
   <path class="fil3" d="M4062.58 903.78c-1.28,-98.23 -76.88,-179.38 -174.68,-188.35 -371.76,-34.78 -712.22,-144.52 -993.17,-268.58 -38.61,-17.04 -79.74,-13.71 -115.1,9.33 -35.36,23.04 -55.03,59.32 -55.03,101.53l0 3193.17c0,46.85 24.69,87 66.5,108.14 41.78,21.13 88.74,17.26 126.47,-10.46 1081.78,-794.95 1152.88,-2408.05 1145.01,-2944.78zm-390.17 318.78c-0.53,-45.71 -31.25,-83.47 -70.99,-87.64 -110.09,-11.78 -213.42,-42.09 -305.57,-79.99 -38.54,-15.85 -78.94,-11.79 -113.55,11.4 -34.61,23.19 -53.73,59.01 -53.73,100.68l0 1206.8c0,52.67 31.97,97.46 81.78,114.59 49.81,17.13 102.57,1.46 134.96,-40.07 307.72,-394.6 329.92,-1005.32 327.1,-1225.77z"/>
  </g>
 </g>
</svg>
